<svg version="1.1" id="Layer_1" xmlns="http://www.w3.org/2000/svg" xmlns:xlink="http://www.w3.org/1999/xlink" x="0px" y="0px"
	 width="100%" viewBox="0 0 909 183" enable-background="new 0 0 909 183" xml:space="preserve">
<path fill="#000000" opacity="1.000000" stroke="none" 
	d="
M874.000000,184.000000 
	C582.666687,184.000000 291.833344,184.000000 1.000000,184.000000 
	C1.000000,123.000000 1.000000,62.000000 1.000000,1.000000 
	C304.000000,1.000000 607.000000,1.000000 910.000000,1.000000 
	C910.000000,62.000000 910.000000,123.000000 910.000000,184.000000 
	C898.166687,184.000000 886.333313,184.000000 874.000000,184.000000 
M485.559113,102.926300 
	C485.650543,102.624725 485.742004,102.323143 485.979095,101.270584 
	C486.272247,99.837013 486.565430,98.403435 487.022125,96.531898 
	C487.022125,96.531898 487.100311,96.070969 487.032471,96.013290 
	C487.032471,96.013290 487.065216,96.096092 487.560974,95.926971 
	C487.652283,95.625023 487.743561,95.323082 487.979248,94.269745 
	C488.272797,92.835449 488.566345,91.401146 489.023376,89.541550 
	C489.023376,89.541550 489.106384,89.093544 489.510010,89.035072 
	C489.510010,89.035072 489.909149,89.118896 489.982025,89.551895 
	C489.982025,89.551895 490.143219,89.960312 490.019348,90.651848 
	C490.305603,91.449791 490.591827,92.247742 490.964966,93.774063 
	C491.023743,94.500938 491.082520,95.227821 491.019104,96.647820 
	C491.305450,97.447891 491.591797,98.247955 491.962555,99.775299 
	C492.021393,100.500633 492.080231,101.225960 492.024414,102.627579 
	C492.400238,103.424644 492.776031,104.221718 492.993286,105.743690 
	C493.041412,106.478783 493.089539,107.213882 493.024292,108.626030 
	C493.398651,109.424965 493.773010,110.223900 493.998505,111.665688 
	C494.049072,112.099770 494.099640,112.533844 494.021027,113.797928 
	C494.347015,115.372978 495.059937,116.982224 494.924286,118.516464 
	C494.562469,122.609657 496.724854,123.120163 500.079773,123.069565 
	C503.834747,123.012932 507.613953,123.362343 511.354462,123.784599 
	C520.899414,124.862091 523.971619,122.902802 527.284851,113.353500 
	C527.319885,113.252480 527.580872,113.229836 528.187805,112.998573 
	C532.052734,112.998573 536.420471,113.409058 540.677002,112.896271 
	C546.188965,112.232254 549.272644,113.884819 550.127380,119.631020 
	C550.313904,120.885048 552.139526,122.696510 553.376221,122.842209 
	C557.025452,123.272141 560.757812,122.995773 564.856628,122.995773 
	C557.742981,105.357521 550.892456,88.322388 543.960388,71.320518 
	C543.590698,70.413750 542.659058,69.355148 541.776611,69.099014 
	C535.063049,67.150375 531.468018,69.191643 528.916809,76.102303 
	C528.356934,77.618851 527.584778,79.055649 526.976929,80.556122 
	C521.378174,94.375359 515.794189,108.200531 509.860596,122.878090 
	C509.332458,121.339989 509.096588,120.653015 509.009064,119.328514 
	C508.957733,118.898094 508.906403,118.467667 508.744263,117.264580 
	C508.113190,114.835701 507.482147,112.406822 507.010712,109.255737 
	C506.962738,108.523430 506.914764,107.791115 506.893677,106.448952 
	C506.545135,105.959747 506.196564,105.470543 506.007446,104.257126 
	C505.959747,103.522751 505.912048,102.788376 505.891418,101.445679 
	C505.542603,100.958252 505.193787,100.470825 505.003754,99.257515 
	C504.956482,98.521500 504.909210,97.785484 504.889282,96.442543 
	C504.540405,95.956680 504.191498,95.470810 504.000519,94.257652 
	C503.953552,93.520248 503.906555,92.782837 503.835541,91.371620 
	C503.511566,90.568108 503.187561,89.764587 503.011108,88.325775 
	C502.959564,87.896957 502.908051,87.468140 502.832855,86.368027 
	C502.508423,85.567986 502.183990,84.767937 502.007996,83.329582 
	C501.956757,82.898659 501.905548,82.467735 501.964966,81.225800 
	C500.742981,77.202705 500.689575,71.378967 497.992554,69.628632 
	C494.872223,67.603539 489.425385,69.163254 484.462341,69.092506 
	C484.272034,69.378578 484.081757,69.664658 483.960419,69.963310 
	C483.960419,69.963310 483.947815,69.894341 483.450409,70.067795 
	C483.355804,70.371368 483.261169,70.674934 483.015961,71.750763 
	C482.398010,74.171631 481.780060,76.592491 480.928497,79.554504 
	C480.673126,80.036545 480.417725,80.518578 480.012939,81.790405 
	C478.722198,86.204414 477.431458,90.618423 475.982117,95.657280 
	C475.951416,96.086914 475.920715,96.516556 475.958618,96.977669 
	C475.958618,96.977669 475.935486,96.905815 475.438477,97.072815 
	C475.347198,97.374878 475.255890,97.676941 475.015198,98.741905 
	C474.638214,100.460655 474.261230,102.179405 473.350769,103.806229 
	C472.922546,103.497704 472.494324,103.189178 472.018616,102.102440 
	C471.299805,99.722313 470.580994,97.342178 470.011749,94.332748 
	C469.695740,93.848564 469.379700,93.364388 469.017181,92.080269 
	C467.565155,86.803787 466.166534,81.511879 464.648132,76.254570 
	C462.550079,68.990288 462.511414,69.001450 454.681793,69.001434 
	C452.357300,69.001427 450.032776,69.001434 447.396484,69.001434 
	C446.969330,70.712402 446.554352,72.374573 445.981476,74.755165 
	C445.944916,75.489929 445.908325,76.224686 445.188049,77.376488 
	C444.507874,81.591766 443.827667,85.807045 442.994568,90.661995 
	C443.044098,91.094559 443.093628,91.527122 442.893066,92.596794 
	C442.643829,93.406067 442.394623,94.215332 441.991638,95.661263 
	C442.040527,96.091972 442.089417,96.522682 441.891510,97.593071 
	C441.641968,98.404800 441.392426,99.216530 440.988251,100.660789 
	C441.036865,101.088860 441.085449,101.516930 440.891205,102.588646 
	C440.640747,103.404182 440.390259,104.219719 439.981995,105.754280 
	C439.945312,106.489555 439.908630,107.224838 439.298065,108.218010 
	C439.244507,108.825218 439.190948,109.432419 438.978912,110.756554 
	C438.943359,111.490158 438.907776,112.223770 438.205475,113.348122 
	C437.847748,115.582123 437.490051,117.816132 436.973206,120.732773 
	C437.316071,121.438469 437.658905,122.144165 438.923096,122.980331 
	C442.881317,122.980331 446.839569,122.980331 450.839966,122.980331 
	C452.805237,111.697968 454.695404,100.846657 456.585602,89.995346 
	C459.727875,98.118690 461.910980,106.196625 464.080688,114.278145 
	C466.431274,123.033394 466.425842,123.034386 475.841125,122.999107 
	C476.995880,122.994774 478.150665,122.998520 479.789551,122.998520 
	C481.486115,116.628860 483.171753,110.300301 485.021027,103.531120 
	C485.021027,103.531120 485.102661,103.068222 485.032806,103.018799 
	C485.032806,103.018799 485.065125,103.098022 485.559113,102.926300 
M770.976685,100.123383 
	C770.976685,96.871994 770.976685,93.620605 770.976685,89.998405 
	C768.642639,89.998405 766.697632,90.100616 764.766968,89.977074 
	C760.785522,89.722298 756.811707,89.347061 752.979248,88.139786 
	C752.993530,85.475655 753.007751,82.811516 753.954529,80.016617 
	C759.950745,80.016617 765.946960,80.016617 771.844177,80.016617 
	C771.844177,75.897285 771.844177,72.459480 771.643005,68.166985 
	C761.754089,68.112808 751.865173,68.040657 741.976318,68.048370 
	C741.372314,68.048836 740.768799,68.681824 740.016541,69.944778 
	C740.016541,87.487404 740.016541,105.030037 740.016541,122.621216 
	C750.930054,122.621216 761.411682,122.621216 771.510132,122.621216 
	C771.510132,119.035194 771.510132,115.836571 771.510132,113.333847 
	C764.929749,112.876137 758.881836,112.455460 752.998901,111.120605 
	C752.998901,108.213539 752.998901,105.306473 752.998901,101.993164 
	C755.456299,101.993164 757.555237,102.099785 759.639343,101.969795 
	C763.375488,101.736778 767.102783,101.361435 770.976685,100.123383 
M415.998108,69.000366 
	C415.998108,69.000366 416.079926,69.003700 415.657532,68.227669 
	C402.063965,68.152969 388.470428,68.064926 374.876801,68.050049 
	C374.304626,68.049423 373.731689,68.729622 373.040253,69.982040 
	C373.026947,71.470749 373.162323,72.978729 372.972473,74.444565 
	C372.405243,78.823433 374.231842,80.446777 378.586609,80.062988 
	C381.698486,79.788742 384.862274,80.103401 388.000244,81.068146 
	C388.000153,93.543907 387.967682,106.019875 388.043701,118.495171 
	C388.052521,119.944771 388.661957,121.390709 389.903931,122.959167 
	C393.273285,122.917427 396.642639,122.875687 400.748260,122.428726 
	C400.783569,108.625214 400.818909,94.821693 401.006500,80.525742 
	C401.041687,80.357559 401.076904,80.189384 402.027344,79.991333 
	C406.907593,79.991333 411.787842,79.991333 417.466492,79.991333 
	C416.938629,76.002548 416.469940,72.460533 415.998108,69.000366 
M277.025574,69.973984 
	C277.017059,86.271164 276.985931,102.568420 277.042450,118.865379 
	C277.047058,120.191025 277.650848,121.514587 278.909637,122.959717 
	C288.601959,122.921616 298.294312,122.883514 308.762177,122.505539 
	C308.762177,119.104950 308.762177,115.704361 308.762177,112.011162 
	C306.547363,112.011162 304.742340,112.095070 302.947693,111.994537 
	C298.570190,111.749336 294.197510,111.418701 289.955109,110.205383 
	C289.955109,107.609825 289.955109,105.014275 289.955109,101.940002 
	C296.269165,101.940002 301.858917,101.940002 307.615417,101.940002 
	C307.615417,98.079552 307.615417,94.718971 307.615417,90.870758 
	C301.653625,90.870758 296.064880,90.870758 290.420959,90.870758 
	C290.420959,87.016457 290.420959,83.655098 290.420959,80.000000 
	C293.486755,80.000000 296.139313,80.061684 298.788208,79.989166 
	C309.444336,79.697418 309.345520,82.583435 308.616852,68.186531 
	C298.719696,68.126221 288.822540,68.047752 278.925385,68.050728 
	C278.331512,68.050903 277.737823,68.701584 277.025574,69.973984 
M268.865509,103.578705 
	C268.910095,94.085846 269.004791,84.592758 268.959320,75.100327 
	C268.949554,73.066948 268.431854,71.035995 267.640472,68.472748 
	C264.086273,68.701859 260.532104,68.930969 256.183319,69.488831 
	C256.175720,80.632912 256.168121,91.777000 256.040985,103.739105 
	C257.491547,111.520683 248.415924,114.777267 240.223511,109.713593 
	C240.223511,114.388969 240.223511,118.963844 240.223511,123.995827 
	C244.214340,123.995827 247.986237,124.098183 251.750870,123.976326 
	C262.375122,123.632446 270.700531,113.436218 268.865509,103.578705 
M95.892395,122.957603 
	C99.477760,122.957603 103.063126,122.957603 106.997833,122.957603 
	C106.997833,119.269745 106.997833,116.299477 106.997833,113.329208 
	C106.997833,110.384132 106.997833,107.439064 106.997833,103.996117 
	C110.211952,103.996117 112.831329,104.048668 115.447975,103.986450 
	C123.939285,103.784576 130.632996,97.866043 131.836533,88.779900 
	C132.739594,81.962173 128.768951,71.683601 120.467545,70.247398 
	C112.154755,68.809242 103.484261,69.438667 94.196915,69.520012 
	C94.133980,86.631897 94.060219,103.743782 94.049042,120.855705 
	C94.048607,121.516335 94.649620,122.177361 95.892395,122.957603 
M138.889450,122.956505 
	C142.479721,122.956505 146.069992,122.956505 150.130142,122.956505 
	C150.130142,117.220573 150.130142,112.203835 150.130142,105.843826 
	C153.769135,111.366035 156.553299,115.761436 159.539841,120.014709 
	C160.387848,121.222374 161.766144,122.766060 163.003616,122.864136 
	C167.384323,123.211311 171.809341,122.999405 177.437088,122.999405 
	C172.114532,116.035858 167.517639,110.021721 162.809097,103.861496 
	C163.840851,103.239929 164.521591,102.821686 165.209961,102.416389 
	C171.707428,98.590813 175.291412,92.934250 174.901825,85.373703 
	C174.599274,79.502312 170.256790,70.746178 162.126114,69.743340 
	C154.170273,68.762062 146.027725,69.294434 137.195663,69.523125 
	C137.133087,86.632690 137.059738,103.742249 137.048782,120.851845 
	C137.048355,121.513580 137.647293,122.175697 138.889450,122.956505 
M581.836487,122.555016 
	C581.890564,113.863869 581.900940,105.172020 582.041992,96.482277 
	C582.065430,95.039574 582.658813,93.606110 583.265320,92.810898 
	C586.924377,99.438324 591.416809,105.754814 594.034363,112.770805 
	C597.409607,121.817940 603.150940,124.638947 612.854858,122.552490 
	C612.854858,104.496056 612.854858,86.439613 612.854858,68.333580 
	C608.433838,68.333580 604.255066,68.333580 599.765503,68.333580 
	C599.765503,78.798164 599.765503,88.916039 599.048950,98.965500 
	C595.846375,93.277870 592.375793,87.721680 589.505859,81.870895 
	C585.501953,73.708382 581.592896,65.854485 569.783691,68.311813 
	C569.522644,68.985222 569.035339,69.658058 569.033630,70.332130 
	C568.991516,87.054588 568.987488,103.777214 569.043030,120.499596 
	C569.045654,121.278702 569.661743,122.055779 570.900452,122.978706 
	C574.273071,122.929947 577.645630,122.881195 581.836487,122.555016 
M705.263672,94.290314 
	C705.263672,97.062279 705.263672,99.834244 705.263672,102.586311 
	C709.637817,103.011856 713.838257,103.420502 718.782104,103.901474 
	C712.606262,111.756691 706.803101,114.224098 700.798767,112.306458 
	C688.874756,108.498199 685.125916,93.956184 693.707886,84.800430 
	C700.314819,77.751762 709.906982,78.108994 716.162781,85.535065 
	C716.804871,86.297325 718.063354,86.898285 719.061890,86.939194 
	C722.970398,87.099373 726.889404,87.004646 730.932068,87.004646 
	C727.893799,75.491699 714.191956,67.297150 702.927307,67.904457 
	C691.773621,68.505768 683.865417,73.661057 678.983337,83.390045 
	C673.641418,94.035423 675.107727,104.535286 682.254578,113.597099 
	C695.370422,130.227081 723.308044,127.811676 731.515503,104.774750 
	C732.663818,101.551628 731.777893,97.603767 731.603943,93.148315 
	C728.169739,93.098877 724.731506,92.921799 721.302307,93.030014 
	C716.199341,93.191063 711.102661,93.553658 705.263672,94.290314 
M232.174057,109.570160 
	C242.290070,93.237251 230.996231,75.658073 218.750534,70.449280 
	C203.416183,63.926704 189.060974,69.328285 181.727585,85.593971 
	C176.838181,96.438812 181.415863,111.830536 190.402588,118.414925 
	C202.809509,127.505226 222.713425,125.786522 232.174057,109.570160 
M798.444580,112.997360 
	C802.291931,122.465523 809.758118,124.507195 818.958313,122.998306 
	C819.422852,122.922119 819.895264,122.894180 820.946960,122.781105 
	C816.046448,116.300774 811.350159,110.090492 806.620667,103.836349 
	C807.926575,103.071144 808.616089,102.649826 809.321289,102.256638 
	C816.431458,98.292404 819.572998,91.127953 818.010681,82.427238 
	C816.749329,75.402245 811.363708,69.790718 803.766235,69.136909 
	C796.330811,68.497032 788.797180,68.997612 781.299377,68.997612 
	C781.299377,87.283546 781.299377,105.008850 781.299377,122.665024 
	C785.672729,122.665024 789.734131,122.665024 794.335083,122.665024 
	C794.335083,117.383499 794.335083,112.431061 794.335083,106.304337 
	C796.012207,109.085289 797.009644,110.739227 798.444580,112.997360 
M334.224609,122.690865 
	C335.655914,123.041367 337.069855,123.509415 338.521271,123.724106 
	C352.334869,125.767395 366.274200,120.184814 370.681702,105.259285 
	C364.328308,105.084747 358.366974,103.897057 352.636719,108.863914 
	C342.772980,117.413589 331.801636,109.869652 329.375488,100.777763 
	C327.683563,94.437302 330.499115,86.562614 335.621613,82.802315 
	C342.711365,77.597939 349.083069,78.690933 352.958862,82.884605 
	C358.167816,88.520859 363.860046,86.645149 370.279846,86.014832 
	C368.168762,82.048027 365.572266,78.666733 362.858368,75.382462 
	C353.470764,64.022057 329.212219,66.169434 320.794373,80.129753 
	C311.536621,95.482933 317.869781,116.243019 334.224609,122.690865 
M633.928040,81.428749 
	C628.367310,95.143303 622.806580,108.857857 617.073181,122.998375 
	C620.712585,122.998375 624.082397,122.778244 627.409180,123.062546 
	C630.509399,123.327492 631.932312,122.212845 632.427979,119.177811 
	C633.250610,114.141510 636.188354,111.940643 641.391174,112.955582 
	C642.832703,113.236786 644.375671,112.998405 645.872070,112.998405 
	C655.268860,112.998413 655.264160,112.999886 658.054138,121.887047 
	C658.180847,122.290390 658.531189,122.623535 658.655273,122.807999 
	C663.187073,122.807999 667.464172,122.807999 672.181763,122.807999 
	C669.035645,115.079376 666.015015,107.666588 663.000366,100.251358 
	C659.182068,90.859184 655.291443,81.495361 651.583435,72.059807 
	C649.501465,66.761841 645.090942,69.437843 641.724060,69.216324 
	C640.458801,69.133080 638.679260,71.259384 637.761963,72.761681 
	C636.256470,75.227486 635.263306,78.006088 633.928040,81.428749 
z"/>
<path fill="#3AB7FF" opacity="1.000000" stroke="none" 
	d="
M503.842590,94.984940 
	C504.191498,95.470810 504.540405,95.956680 504.701324,96.958267 
	C504.623901,98.310463 504.734436,99.146935 504.844971,99.983398 
	C505.193787,100.470825 505.542603,100.958252 505.702698,101.960876 
	C505.625336,103.311172 505.736664,104.146263 505.847992,104.981354 
	C506.196564,105.470543 506.545135,105.959747 506.704163,106.963577 
	C506.626801,108.311447 506.738922,109.144691 506.851074,109.977943 
	C507.482147,112.406822 508.113190,114.835701 508.652893,117.820686 
	C508.661224,118.906540 508.760956,119.436295 508.860718,119.966049 
	C509.096588,120.653015 509.332458,121.339989 509.860596,122.878090 
	C515.794189,108.200531 521.378174,94.375359 526.976929,80.556122 
	C527.584778,79.055649 528.356934,77.618851 528.916809,76.102303 
	C531.468018,69.191643 535.063049,67.150375 541.776611,69.099014 
	C542.659058,69.355148 543.590698,70.413750 543.960388,71.320518 
	C550.892456,88.322388 557.742981,105.357521 564.856628,122.995773 
	C560.757812,122.995773 557.025452,123.272141 553.376221,122.842209 
	C552.139526,122.696510 550.313904,120.885048 550.127380,119.631020 
	C549.272644,113.884819 546.188965,112.232254 540.677002,112.896271 
	C536.420471,113.409058 532.052734,112.998573 528.187805,112.998573 
	C527.580872,113.229836 527.319885,113.252480 527.284851,113.353500 
	C523.971619,122.902802 520.899414,124.862091 511.354462,123.784599 
	C507.613953,123.362343 503.834747,123.012932 500.079773,123.069565 
	C496.724854,123.120163 494.562469,122.609657 494.924286,118.516464 
	C495.059937,116.982224 494.347015,115.372978 494.231293,113.211227 
	C494.343506,112.090622 494.245422,111.556725 494.147369,111.022827 
	C493.773010,110.223900 493.398651,109.424965 493.255432,108.075554 
	C493.375000,106.689651 493.263428,105.854218 493.151855,105.018784 
	C492.776031,104.221718 492.400238,103.424644 492.254364,102.065437 
	C492.282257,100.684868 492.080200,99.866447 491.878113,99.048019 
	C491.591797,98.247955 491.305450,97.447891 491.252045,96.076187 
	C491.282684,94.684929 491.080383,93.865303 490.878052,93.045685 
	C490.591827,92.247742 490.305603,91.449791 490.204468,90.187546 
	C490.444977,89.491966 490.500305,89.260681 490.555664,89.029404 
	C490.340149,89.059235 490.124664,89.089066 489.909149,89.118896 
	C489.909149,89.118896 489.510010,89.035072 489.186096,89.131195 
	C488.652649,89.464127 488.651886,89.710640 488.859924,89.966843 
	C488.566345,91.401146 488.272797,92.835449 487.750671,94.802994 
	C487.331665,95.566582 487.179352,95.819862 487.065216,96.096092 
	C487.065216,96.096092 487.032471,96.013290 486.943817,96.117615 
	C486.642731,96.463242 486.643860,96.712547 486.858582,96.969864 
	C486.565430,98.403435 486.272247,99.837013 485.749878,101.803818 
	C485.329865,102.567413 485.178009,102.821068 485.065125,103.098022 
	C485.065125,103.098022 485.032806,103.018799 484.944641,103.119049 
	C484.643158,103.461411 484.643463,103.712227 484.857361,103.971748 
	C483.171753,110.300301 481.486115,116.628860 479.789551,122.998520 
	C478.150665,122.998520 476.995880,122.994774 475.841125,122.999107 
	C466.425842,123.034386 466.431274,123.033394 464.080688,114.278145 
	C461.910980,106.196625 459.727875,98.118690 456.585602,89.995346 
	C454.695404,100.846657 452.805237,111.697968 450.839966,122.980331 
	C446.839569,122.980331 442.881317,122.980331 438.451477,122.611328 
	C437.697327,121.511604 437.414825,120.780876 437.132324,120.050140 
	C437.490051,117.816132 437.847748,115.582123 438.751526,112.963684 
	C439.244202,111.732712 439.190796,110.886169 439.137390,110.039627 
	C439.190948,109.432419 439.244507,108.825218 439.797729,107.899384 
	C440.244843,106.732254 440.192291,105.883751 440.139771,105.035248 
	C440.390259,104.219719 440.640747,103.404182 441.162903,102.102158 
	C441.337341,101.086533 441.240112,100.557396 441.142883,100.028259 
	C441.392426,99.216530 441.641968,98.404800 442.163818,97.106110 
	C442.339233,96.087639 442.242310,95.556122 442.145416,95.024597 
	C442.394623,94.215332 442.643829,93.406067 443.165771,92.109161 
	C443.341461,91.088455 443.244446,90.555382 443.147461,90.022316 
	C443.827667,85.807045 444.507874,81.591766 445.742645,76.978485 
	C446.244598,75.732567 446.191986,74.884651 446.139404,74.036743 
	C446.554352,72.374573 446.969330,70.712402 447.396484,69.001434 
	C450.032776,69.001434 452.357300,69.001427 454.681793,69.001434 
	C462.511414,69.001450 462.550079,68.990288 464.648132,76.254570 
	C466.166534,81.511879 467.565155,86.803787 469.066132,92.765442 
	C469.364105,93.954430 469.613129,94.458244 469.862183,94.962051 
	C470.580994,97.342178 471.299805,99.722313 472.038574,102.813766 
	C472.309204,104.344765 472.559906,105.164436 472.810608,105.984116 
	C473.050598,105.967918 473.290558,105.951714 473.530518,105.935516 
	C473.648438,105.256401 473.766357,104.577278 473.884277,103.898163 
	C474.261230,102.179405 474.638214,100.460655 475.246246,98.203110 
	C475.667450,97.434097 475.820190,97.181259 475.935486,96.905815 
	C475.935486,96.905815 475.958618,96.977669 476.106812,96.816330 
	C476.216888,96.114136 476.178802,95.573288 476.140717,95.032433 
	C477.431458,90.618423 478.722198,86.204414 480.326355,81.333694 
	C480.813873,80.255775 480.987976,79.634567 481.162109,79.013351 
	C481.780060,76.592491 482.398010,74.171631 483.250244,71.205933 
	C483.679718,70.430115 483.834137,70.174530 483.947815,69.894341 
	C483.947815,69.894341 483.960419,69.963310 484.128784,69.855667 
	C484.558624,69.591118 484.789093,69.397316 484.988586,69.166618 
	C489.425385,69.163254 494.872223,67.603539 497.992554,69.628632 
	C500.689575,71.378967 500.742981,77.202705 501.762939,81.801308 
	C501.660492,82.907173 501.760040,83.437531 501.859558,83.967896 
	C502.183990,84.767937 502.508423,85.567986 502.697571,86.872726 
	C502.662720,87.905296 502.763153,88.433182 502.863586,88.961067 
	C503.187561,89.764587 503.511566,90.568108 503.674072,91.921906 
	C503.622589,93.309776 503.732574,94.147362 503.842590,94.984940 
M535.920410,89.466812 
	C534.505310,93.465935 533.090210,97.465050 531.559631,101.790413 
	C535.898804,101.790413 539.340759,101.790413 543.567139,101.790413 
	C541.558350,96.057091 539.700256,90.753784 537.556152,84.634262 
	C536.797241,86.607300 536.395142,87.652611 535.920410,89.466812 
M457.594208,86.961647 
	C457.249023,87.005119 456.903839,87.048592 456.558655,87.092049 
	C456.655121,87.356934 456.751587,87.621819 456.848022,87.886696 
	C457.141052,87.708443 457.434113,87.530182 457.594208,86.961647 
z"/>
<path fill="#3BB7FF" opacity="1.000000" stroke="none" 
	d="
M731.833618,93.991386 
	C731.777893,97.603767 732.663818,101.551628 731.515503,104.774750 
	C723.308044,127.811676 695.370422,130.227081 682.254578,113.597099 
	C675.107727,104.535286 673.641418,94.035423 678.983337,83.390045 
	C683.865417,73.661057 691.773621,68.505768 702.927307,67.904457 
	C714.191956,67.297150 727.893799,75.491699 730.932068,87.004646 
	C726.889404,87.004646 722.970398,87.099373 719.061890,86.939194 
	C718.063354,86.898285 716.804871,86.297325 716.162781,85.535065 
	C709.906982,78.108994 700.314819,77.751762 693.707886,84.800430 
	C685.125916,93.956184 688.874756,108.498199 700.798767,112.306458 
	C706.803101,114.224098 712.606262,111.756691 718.782104,103.901474 
	C713.838257,103.420502 709.637817,103.011856 705.263672,102.586311 
	C705.263672,99.834244 705.263672,97.062279 706.097961,94.122986 
	C715.232727,93.967575 723.533142,93.979477 731.833618,93.991386 
z"/>
<path fill="#044DAE" opacity="1.000000" stroke="none" 
	d="
M232.060883,109.925858 
	C222.713425,125.786522 202.809509,127.505226 190.402588,118.414925 
	C181.415863,111.830536 176.838181,96.438812 181.727585,85.593971 
	C189.060974,69.328285 203.416183,63.926704 218.750534,70.449280 
	C230.996231,75.658073 242.290070,93.237251 232.060883,109.925858 
M193.860931,103.376495 
	C198.348572,110.611000 205.603897,113.702629 212.432495,110.670258 
	C221.356171,106.707527 224.031784,101.669594 222.856293,92.823311 
	C221.910385,85.704826 210.937546,77.503998 202.917725,81.046692 
	C194.578323,84.730553 189.548721,93.434837 193.860931,103.376495 
z"/>
<path fill="#39B7FF" opacity="1.000000" stroke="none" 
	d="
M570.183899,69.011703 
	C581.592896,65.854485 585.501953,73.708382 589.505859,81.870895 
	C592.375793,87.721680 595.846375,93.277870 599.342834,99.266800 
	C599.678955,100.078796 599.721191,100.589493 599.763428,101.100189 
	C600.839539,99.600639 600.982910,98.063248 600.987915,96.525406 
	C601.012207,89.051277 601.241699,81.566200 600.908447,74.106888 
	C600.710754,69.683655 602.571777,68.886093 606.457886,68.937149 
	C610.182129,68.986092 612.198242,69.426773 612.126343,74.003151 
	C611.870483,90.276222 612.033264,106.555885 612.037598,122.833046 
	C603.150940,124.638947 597.409607,121.817940 594.034363,112.770805 
	C591.416809,105.754814 586.924377,99.438324 583.062866,92.175400 
	C582.787964,91.391342 582.739807,91.222038 582.635986,91.100212 
	C582.538940,90.986374 582.382812,90.922935 582.252686,90.837311 
	C581.837708,92.245926 581.079407,93.650642 581.063416,95.063751 
	C580.958801,104.318962 581.014709,113.575996 581.018250,122.832436 
	C577.645630,122.881195 574.273071,122.929947 570.446716,122.448273 
	C570.056580,104.282455 570.120239,86.647079 570.183899,69.011703 
z"/>
<path fill="#3AB7FF" opacity="1.000000" stroke="none" 
	d="
M798.225830,112.695267 
	C797.009644,110.739227 796.012207,109.085289 794.335083,106.304337 
	C794.335083,112.431061 794.335083,117.383499 794.335083,122.665024 
	C789.734131,122.665024 785.672729,122.665024 781.299377,122.665024 
	C781.299377,105.008850 781.299377,87.283546 781.299377,68.997612 
	C788.797180,68.997612 796.330811,68.497032 803.766235,69.136909 
	C811.363708,69.790718 816.749329,75.402245 818.010681,82.427238 
	C819.572998,91.127953 816.431458,98.292404 809.321289,102.256638 
	C808.616089,102.649826 807.926575,103.071144 806.620667,103.836349 
	C811.350159,110.090492 816.046448,116.300774 820.946960,122.781105 
	C819.895264,122.894180 819.422852,122.922119 818.958313,122.998306 
	C809.758118,124.507195 802.291931,122.465523 798.225830,112.695267 
M805.963013,88.015121 
	C806.004456,79.978668 803.637146,78.223564 794.377563,79.445389 
	C794.377563,84.264305 794.377563,89.077789 794.377563,93.777138 
	C799.520630,94.584785 803.528931,93.670609 805.963013,88.015121 
z"/>
<path fill="#024CAE" opacity="1.000000" stroke="none" 
	d="
M137.967133,69.162407 
	C146.027725,69.294434 154.170273,68.762062 162.126114,69.743340 
	C170.256790,70.746178 174.599274,79.502312 174.901825,85.373703 
	C175.291412,92.934250 171.707428,98.590813 165.209961,102.416389 
	C164.521591,102.821686 163.840851,103.239929 162.809097,103.861496 
	C167.517639,110.021721 172.114532,116.035858 177.437088,122.999405 
	C171.809341,122.999405 167.384323,123.211311 163.003616,122.864136 
	C161.766144,122.766060 160.387848,121.222374 159.539841,120.014709 
	C156.553299,115.761436 153.769135,111.366035 150.130142,105.843826 
	C150.130142,112.203835 150.130142,117.220573 150.130142,122.956505 
	C146.069992,122.956505 142.479721,122.956505 138.433960,122.439262 
	C137.974701,104.335480 137.970917,86.748947 137.967133,69.162407 
M159.229385,79.819344 
	C156.276840,79.501320 153.324280,79.183289 150.300781,78.857628 
	C150.300781,84.684860 150.300781,89.533607 150.300781,94.413528 
	C163.315994,92.816162 165.454361,89.570023 159.229385,79.819344 
z"/>
<path fill="#044DAE" opacity="1.000000" stroke="none" 
	d="
M333.896088,122.460480 
	C317.869781,116.243019 311.536621,95.482933 320.794373,80.129753 
	C329.212219,66.169434 353.470764,64.022057 362.858368,75.382462 
	C365.572266,78.666733 368.168762,82.048027 370.279846,86.014832 
	C363.860046,86.645149 358.167816,88.520859 352.958862,82.884605 
	C349.083069,78.690933 342.711365,77.597939 335.621613,82.802315 
	C330.499115,86.562614 327.683563,94.437302 329.375488,100.777763 
	C331.801636,109.869652 342.772980,117.413589 352.636719,108.863914 
	C358.366974,103.897057 364.328308,105.084747 370.681702,105.259285 
	C366.274200,120.184814 352.334869,125.767395 338.521271,123.724106 
	C337.069855,123.509415 335.655914,123.041367 333.896088,122.460480 
z"/>
<path fill="#3BB7FF" opacity="1.000000" stroke="none" 
	d="
M633.991089,81.040771 
	C635.263306,78.006088 636.256470,75.227486 637.761963,72.761681 
	C638.679260,71.259384 640.458801,69.133080 641.724060,69.216324 
	C645.090942,69.437843 649.501465,66.761841 651.583435,72.059807 
	C655.291443,81.495361 659.182068,90.859184 663.000366,100.251358 
	C666.015015,107.666588 669.035645,115.079376 672.181763,122.807999 
	C667.464172,122.807999 663.187073,122.807999 658.655273,122.807999 
	C658.531189,122.623535 658.180847,122.290390 658.054138,121.887047 
	C655.264160,112.999886 655.268860,112.998413 645.872070,112.998405 
	C644.375671,112.998405 642.832703,113.236786 641.391174,112.955582 
	C636.188354,111.940643 633.250610,114.141510 632.427979,119.177811 
	C631.932312,122.212845 630.509399,123.327492 627.409180,123.062546 
	C624.082397,122.778244 620.712585,122.998375 617.073181,122.998375 
	C622.806580,108.857857 628.367310,95.143303 633.991089,81.040771 
M640.041504,101.957497 
	C643.520264,101.957497 646.999084,101.957497 650.845093,101.957497 
	C648.916870,96.475716 647.070374,91.226456 645.223877,85.977188 
	C644.832153,86.025185 644.440369,86.073174 644.048584,86.121162 
	C642.443298,91.295296 640.837952,96.469421 640.041504,101.957497 
z"/>
<path fill="#004AAD" opacity="1.000000" stroke="none" 
	d="
M308.841034,69.036766 
	C309.345520,82.583435 309.444336,79.697418 298.788208,79.989166 
	C296.139313,80.061684 293.486755,80.000000 290.420959,80.000000 
	C290.420959,83.655098 290.420959,87.016457 290.420959,90.870758 
	C296.064880,90.870758 301.653625,90.870758 307.615417,90.870758 
	C307.615417,94.718971 307.615417,98.079552 307.615417,101.940002 
	C301.858917,101.940002 296.269165,101.940002 289.955109,101.940002 
	C289.955109,105.014275 289.955109,107.609825 289.800446,110.949966 
	C292.383606,112.124306 295.114746,112.870956 297.860382,112.928696 
	C309.451569,113.172455 307.799042,111.732834 307.986633,122.845421 
	C298.294312,122.883514 288.601959,122.921616 278.448669,122.441589 
	C278.028168,104.332542 278.068634,86.741623 278.567261,69.091553 
	C288.963928,69.033867 298.902466,69.035316 308.841034,69.036766 
z"/>
<path fill="#38B6FF" opacity="1.000000" stroke="none" 
	d="
M752.833923,112.034782 
	C758.881836,112.455460 764.929749,112.876137 771.510132,113.333847 
	C771.510132,115.836571 771.510132,119.035194 771.510132,122.621216 
	C761.411682,122.621216 750.930054,122.621216 740.016541,122.621216 
	C740.016541,105.030037 740.016541,87.487404 740.548828,69.476685 
	C751.007019,69.031471 760.932983,69.054367 770.916199,69.524597 
	C771.142700,80.764839 771.632812,78.693443 762.107483,79.031242 
	C759.069641,79.138962 756.049988,79.760788 753.021973,80.147385 
	C753.007751,82.811516 752.993530,85.475655 752.780518,88.873688 
	C755.142151,90.073341 757.691772,90.862442 760.264832,90.948090 
	C770.666321,91.294319 770.144226,89.189713 769.487305,100.928246 
	C763.505981,100.983307 757.986694,100.983307 751.619568,100.983307 
	C752.077881,105.154594 752.455933,108.594688 752.833923,112.034782 
z"/>
<path fill="#014BAD" opacity="1.000000" stroke="none" 
	d="
M94.970551,69.161835 
	C103.484261,69.438667 112.154755,68.809242 120.467545,70.247398 
	C128.768951,71.683601 132.739594,81.962173 131.836533,88.779900 
	C130.632996,97.866043 123.939285,103.784576 115.447975,103.986450 
	C112.831329,104.048668 110.211952,103.996117 106.997833,103.996117 
	C106.997833,107.439064 106.997833,110.384132 106.997833,113.329208 
	C106.997833,116.299477 106.997833,119.269745 106.997833,122.957603 
	C103.063126,122.957603 99.477760,122.957603 95.437149,122.440094 
	C94.978119,104.335670 94.974335,86.748749 94.970551,69.161835 
M106.997833,88.330719 
	C106.997833,90.296059 106.997833,92.261398 106.997833,94.255280 
	C117.068466,93.333954 120.423683,91.081871 119.965935,85.745560 
	C119.513695,80.473526 114.914108,78.203606 106.997833,79.691780 
	C106.997833,82.184799 106.997833,84.790642 106.997833,88.330719 
z"/>
<path fill="#004AAD" opacity="1.000000" stroke="none" 
	d="
M401.112091,80.021217 
	C401.076904,80.189384 401.041687,80.357559 400.724609,81.128006 
	C400.299164,95.431503 400.155579,109.132721 400.011993,122.833946 
	C396.642639,122.875687 393.273285,122.917427 389.451355,122.441711 
	C388.999207,109.467941 389.032562,97.011436 388.956116,84.555595 
	C388.947113,83.086929 388.335297,81.621956 388.002930,80.155273 
	C384.862274,80.103401 381.698486,79.788742 378.586609,80.062988 
	C374.231842,80.446777 372.405243,78.823433 372.972473,74.444565 
	C373.162323,72.978729 373.026947,71.470749 373.556030,69.515366 
	C388.074524,69.033691 402.077209,69.018692 416.079926,69.003700 
	C416.079926,69.003700 415.998108,69.000366 415.992981,69.421722 
	C415.987885,72.741051 415.987885,75.639038 415.987885,78.413864 
	C410.593048,78.996788 405.852570,79.509003 401.112091,80.021217 
z"/>
<path fill="#014BAD" opacity="1.000000" stroke="none" 
	d="
M256.977905,69.160080 
	C260.532104,68.930969 264.086273,68.701859 267.838867,69.204407 
	C268.065430,81.297729 268.093597,92.659409 268.121735,104.021080 
	C270.700531,113.436218 262.375122,123.632446 251.750870,123.976326 
	C247.986237,124.098183 244.214340,123.995827 240.223511,123.995827 
	C240.223511,118.963844 240.223511,114.388969 240.223511,109.713593 
	C248.415924,114.777267 257.491547,111.520683 256.359650,103.011063 
	C256.778198,91.242035 256.878052,80.201057 256.977905,69.160080 
z"/>
<path fill="#9EDBFF" opacity="1.000000" stroke="none" 
	d="
M612.446228,122.692764 
	C612.033264,106.555885 611.870483,90.276222 612.126343,74.003151 
	C612.198242,69.426773 610.182129,68.986092 606.457886,68.937149 
	C602.571777,68.886093 600.710754,69.683655 600.908447,74.106888 
	C601.241699,81.566200 601.012207,89.051277 600.987915,96.525406 
	C600.982910,98.063248 600.839539,99.600639 599.763428,101.100189 
	C599.721191,100.589493 599.678955,100.078796 599.701111,99.301003 
	C599.765503,88.916039 599.765503,78.798164 599.765503,68.333580 
	C604.255066,68.333580 608.433838,68.333580 612.854858,68.333580 
	C612.854858,86.439613 612.854858,104.496056 612.446228,122.692764 
z"/>
<path fill="#D7F0FF" opacity="1.000000" stroke="none" 
	d="
M569.983765,68.661758 
	C570.120239,86.647079 570.056580,104.282455 569.992554,122.375816 
	C569.661743,122.055779 569.045654,121.278702 569.043030,120.499596 
	C568.987488,103.777214 568.991516,87.054588 569.033630,70.332130 
	C569.035339,69.658058 569.522644,68.985222 569.983765,68.661758 
z"/>
<path fill="#4C80C5" opacity="1.000000" stroke="none" 
	d="
M278.109131,69.150696 
	C278.068634,86.741623 278.028168,104.332542 277.981964,122.381287 
	C277.650848,121.514587 277.047058,120.191025 277.042450,118.865379 
	C276.985931,102.568420 277.017059,86.271164 277.326782,69.529236 
	C277.627960,69.084480 278.109100,69.150696 278.109131,69.150696 
z"/>
<path fill="#4C80C5" opacity="1.000000" stroke="none" 
	d="
M137.581390,69.342766 
	C137.970917,86.748947 137.974701,104.335480 137.972717,122.379822 
	C137.647293,122.175697 137.048355,121.513580 137.048782,120.851845 
	C137.059738,103.742249 137.133087,86.632690 137.581390,69.342766 
z"/>
<path fill="#4C80C5" opacity="1.000000" stroke="none" 
	d="
M94.583733,69.340927 
	C94.974335,86.748749 94.978119,104.335670 94.976135,122.380394 
	C94.649620,122.177361 94.048607,121.516335 94.049042,120.855705 
	C94.060219,103.743782 94.133980,86.631897 94.583733,69.340927 
z"/>
<path fill="#99B7DE" opacity="1.000000" stroke="none" 
	d="
M415.868713,68.615685 
	C402.077209,69.018692 388.074524,69.033691 373.615479,69.070663 
	C373.731689,68.729622 374.304626,68.049423 374.876801,68.050049 
	C388.470428,68.064926 402.063965,68.152969 415.868713,68.615685 
z"/>
<path fill="#ECF1F9" opacity="1.000000" stroke="none" 
	d="
M388.001587,80.611710 
	C388.335297,81.621956 388.947113,83.086929 388.956116,84.555595 
	C389.032562,97.011436 388.999207,109.467941 388.995850,122.381302 
	C388.661957,121.390709 388.052521,119.944771 388.043701,118.495171 
	C387.967682,106.019875 388.000153,93.543907 388.001587,80.611710 
z"/>
<path fill="#1458B3" opacity="1.000000" stroke="none" 
	d="
M400.380127,122.631332 
	C400.155579,109.132721 400.299164,95.431503 400.648468,81.374229 
	C400.818909,94.821693 400.783569,108.625214 400.380127,122.631332 
z"/>
<path fill="#62C6FF" opacity="1.000000" stroke="none" 
	d="
M581.427368,122.693726 
	C581.014709,113.575996 580.958801,104.318962 581.063416,95.063751 
	C581.079407,93.650642 581.837708,92.245926 582.252686,90.837311 
	C582.382812,90.922935 582.538940,90.986374 582.635986,91.100212 
	C582.739807,91.222038 582.787964,91.391342 582.924622,91.854141 
	C582.658813,93.606110 582.065430,95.039574 582.041992,96.482277 
	C581.900940,105.172020 581.890564,113.863869 581.427368,122.693726 
z"/>
<path fill="#98B6DE" opacity="1.000000" stroke="none" 
	d="
M268.493622,103.799896 
	C268.093597,92.659409 268.065430,81.297729 268.092712,69.469994 
	C268.431854,71.035995 268.949554,73.066948 268.959320,75.100327 
	C269.004791,84.592758 268.910095,94.085846 268.493622,103.799896 
z"/>
<path fill="#6893CE" opacity="1.000000" stroke="none" 
	d="
M256.580627,69.324455 
	C256.878052,80.201057 256.778198,91.242035 256.419434,102.602051 
	C256.168121,91.777000 256.175720,80.632912 256.580627,69.324455 
z"/>
<path fill="#AFE1FF" opacity="1.000000" stroke="none" 
	d="
M770.858948,69.077255 
	C760.932983,69.054367 751.007019,69.031471 740.623047,69.014542 
	C740.768799,68.681824 741.372314,68.048836 741.976318,68.048370 
	C751.865173,68.040657 761.754089,68.112808 771.497070,68.604439 
	C771.351135,69.041893 770.858948,69.077255 770.858948,69.077255 
z"/>
<path fill="#9AB7DF" opacity="1.000000" stroke="none" 
	d="
M278.567230,69.091553 
	C278.109100,69.150696 277.627960,69.084480 277.385986,69.067032 
	C277.737823,68.701584 278.331512,68.050903 278.925385,68.050728 
	C288.822540,68.047752 298.719696,68.126221 308.728943,68.611649 
	C298.902466,69.035316 288.963928,69.033867 278.567230,69.091553 
z"/>
<path fill="#2664B9" opacity="1.000000" stroke="none" 
	d="
M308.374390,122.675476 
	C307.799042,111.732834 309.451569,113.172455 297.860382,112.928696 
	C295.114746,112.870956 292.383606,112.124306 289.734314,111.408508 
	C294.197510,111.418701 298.570190,111.749336 302.947693,111.994537 
	C304.742340,112.095070 306.547363,112.011162 308.762177,112.011162 
	C308.762177,115.704361 308.762177,119.104950 308.374390,122.675476 
z"/>
<path fill="#9BDAFF" opacity="1.000000" stroke="none" 
	d="
M770.916199,69.524597 
	C770.858948,69.077255 771.351135,69.041893 771.597656,69.031784 
	C771.844177,72.459480 771.844177,75.897285 771.844177,80.016617 
	C765.946960,80.016617 759.950745,80.016617 753.488281,80.082001 
	C756.049988,79.760788 759.069641,79.138962 762.107483,79.031242 
	C771.632812,78.693443 771.142700,80.764839 770.916199,69.524597 
z"/>
<path fill="#6EC9FF" opacity="1.000000" stroke="none" 
	d="
M769.949280,100.873184 
	C770.144226,89.189713 770.666321,91.294319 760.264832,90.948090 
	C757.691772,90.862442 755.142151,90.073341 752.708252,89.314491 
	C756.811707,89.347061 760.785522,89.722298 764.766968,89.977074 
	C766.697632,90.100616 768.642639,89.998405 770.976685,89.998405 
	C770.976685,93.620605 770.976685,96.871994 770.680420,100.560135 
	C770.384155,100.996887 769.949280,100.873184 769.949280,100.873184 
z"/>
<path fill="#E8F7FF" opacity="1.000000" stroke="none" 
	d="
M769.487305,100.928246 
	C769.949280,100.873184 770.384155,100.996887 770.608948,101.021233 
	C767.102783,101.361435 763.375488,101.736778 759.639343,101.969795 
	C757.555237,102.099785 755.456299,101.993164 752.998901,101.993164 
	C752.998901,105.306473 752.998901,108.213539 752.916382,111.577698 
	C752.455933,108.594688 752.077881,105.154594 751.619568,100.983307 
	C757.986694,100.983307 763.505981,100.983307 769.487305,100.928246 
z"/>
<path fill="#F6FCFF" opacity="1.000000" stroke="none" 
	d="
M731.718750,93.569855 
	C723.533142,93.979477 715.232727,93.967575 706.467773,93.893082 
	C711.102661,93.553658 716.199341,93.191063 721.302307,93.030014 
	C724.731506,92.921799 728.169739,93.098877 731.718750,93.569855 
z"/>
<path fill="#8BACD9" opacity="1.000000" stroke="none" 
	d="
M401.569702,80.006271 
	C405.852570,79.509003 410.593048,78.996788 415.987885,78.413864 
	C415.987885,75.639038 415.987885,72.741051 415.994568,69.380798 
	C416.469940,72.460533 416.938629,76.002548 417.466492,79.991333 
	C411.787842,79.991333 406.907593,79.991333 401.569702,80.006271 
z"/>
<path fill="#3BB7FF" opacity="1.000000" stroke="none" 
	d="
M473.617523,103.852196 
	C473.766357,104.577278 473.648438,105.256401 473.530518,105.935516 
	C473.290558,105.951714 473.050598,105.967918 472.810608,105.984116 
	C472.559906,105.164436 472.309204,104.344765 472.062286,103.202866 
	C472.494324,103.189178 472.922546,103.497704 473.617523,103.852196 
z"/>
<path fill="#3BB7FF" opacity="1.000000" stroke="none" 
	d="
M440.060852,105.394760 
	C440.192291,105.883751 440.244843,106.732254 440.084656,107.770432 
	C439.908630,107.224838 439.945312,106.489555 440.060852,105.394760 
z"/>
<path fill="#3BB7FF" opacity="1.000000" stroke="none" 
	d="
M493.072571,105.381241 
	C493.263428,105.854218 493.375000,106.689651 493.312134,107.737030 
	C493.089539,107.213882 493.041412,106.478783 493.072571,105.381241 
z"/>
<path fill="#3BB7FF" opacity="1.000000" stroke="none" 
	d="
M505.927734,104.619240 
	C505.736664,104.146263 505.625336,103.311172 505.689178,102.265045 
	C505.912048,102.788376 505.959747,103.522751 505.927734,104.619240 
z"/>
<path fill="#3BB7FF" opacity="1.000000" stroke="none" 
	d="
M506.930908,109.616837 
	C506.738922,109.144691 506.626801,108.311447 506.690735,107.268501 
	C506.914764,107.791115 506.962738,108.523430 506.930908,109.616837 
z"/>
<path fill="#3BB7FF" opacity="1.000000" stroke="none" 
	d="
M439.058167,110.398087 
	C439.190796,110.886169 439.244202,111.732712 439.084900,112.768311 
	C438.907776,112.223770 438.943359,111.490158 439.058167,110.398087 
z"/>
<path fill="#3BB7FF" opacity="1.000000" stroke="none" 
	d="
M437.052765,120.391464 
	C437.414825,120.780876 437.697327,121.511604 437.990784,122.546097 
	C437.658905,122.144165 437.316071,121.438469 437.052765,120.391464 
z"/>
<path fill="#3BB7FF" opacity="1.000000" stroke="none" 
	d="
M491.920349,99.411667 
	C492.080200,99.866447 492.282257,100.684868 492.311707,101.727295 
	C492.080231,101.225960 492.021393,100.500633 491.920349,99.411667 
z"/>
<path fill="#3BB7FF" opacity="1.000000" stroke="none" 
	d="
M504.924377,99.620453 
	C504.734436,99.146935 504.623901,98.310463 504.687683,97.261734 
	C504.909210,97.785484 504.956482,98.521500 504.924377,99.620453 
z"/>
<path fill="#3BB7FF" opacity="1.000000" stroke="none" 
	d="
M481.045288,79.283936 
	C480.987976,79.634567 480.813873,80.255775 480.401062,80.938805 
	C480.417725,80.518578 480.673126,80.036545 481.045288,79.283936 
z"/>
<path fill="#3BB7FF" opacity="1.000000" stroke="none" 
	d="
M446.060425,74.395950 
	C446.191986,74.884651 446.244598,75.732567 446.084503,76.769958 
	C445.908325,76.224686 445.944916,75.489929 446.060425,74.395950 
z"/>
<path fill="#3BB7FF" opacity="1.000000" stroke="none" 
	d="
M490.921509,93.409874 
	C491.080383,93.865303 491.282684,94.684929 491.313110,95.729622 
	C491.082520,95.227821 491.023743,94.500938 490.921509,93.409874 
z"/>
<path fill="#3BB7FF" opacity="1.000000" stroke="none" 
	d="
M503.921539,94.621300 
	C503.732574,94.147362 503.622589,93.309776 503.686096,92.258804 
	C503.906555,92.782837 503.953552,93.520248 503.921539,94.621300 
z"/>
<path fill="#3BB7FF" opacity="1.000000" stroke="none" 
	d="
M469.936951,94.647400 
	C469.613129,94.458244 469.364105,93.954430 469.089386,93.165413 
	C469.379700,93.364388 469.695740,93.848564 469.936951,94.647400 
z"/>
<path fill="#3BB7FF" opacity="1.000000" stroke="none" 
	d="
M501.933777,83.648735 
	C501.760040,83.437531 501.660492,82.907173 501.707642,82.206818 
	C501.905548,82.467735 501.956757,82.898659 501.933777,83.648735 
z"/>
<path fill="#3BB7FF" opacity="1.000000" stroke="none" 
	d="
M502.937347,88.643417 
	C502.763153,88.433182 502.662720,87.905296 502.709412,87.208374 
	C502.908051,87.468140 502.959564,87.896957 502.937347,88.643417 
z"/>
<path fill="#3BB7FF" opacity="1.000000" stroke="none" 
	d="
M489.945587,89.335396 
	C490.124664,89.089066 490.340149,89.059235 490.555664,89.029404 
	C490.500305,89.260681 490.444977,89.491966 490.266418,89.841782 
	C490.143219,89.960312 489.982025,89.551895 489.945587,89.335396 
z"/>
<path fill="#3BB7FF" opacity="1.000000" stroke="none" 
	d="
M443.071014,90.342155 
	C443.244446,90.555382 443.341461,91.088455 443.290771,91.790604 
	C443.093628,91.527122 443.044098,91.094559 443.071014,90.342155 
z"/>
<path fill="#3BB7FF" opacity="1.000000" stroke="none" 
	d="
M494.072937,111.344254 
	C494.245422,111.556725 494.343506,112.090622 494.295898,112.796219 
	C494.099640,112.533844 494.049072,112.099770 494.072937,111.344254 
z"/>
<path fill="#3BB7FF" opacity="1.000000" stroke="none" 
	d="
M441.065552,100.344528 
	C441.240112,100.557396 441.337341,101.086533 441.284302,101.780334 
	C441.085449,101.516930 441.036865,101.088860 441.065552,100.344528 
z"/>
<path fill="#3BB7FF" opacity="1.000000" stroke="none" 
	d="
M442.068542,95.342934 
	C442.242310,95.556122 442.339233,96.087639 442.287231,96.786270 
	C442.089417,96.522682 442.040527,96.091972 442.068542,95.342934 
z"/>
<path fill="#3BB7FF" opacity="1.000000" stroke="none" 
	d="
M476.061401,95.344856 
	C476.178802,95.573288 476.216888,96.114136 476.072510,96.800591 
	C475.920715,96.516556 475.951416,96.086914 476.061401,95.344856 
z"/>
<path fill="#3BB7FF" opacity="1.000000" stroke="none" 
	d="
M508.934875,119.647278 
	C508.760956,119.436295 508.661224,118.906540 508.708313,118.207016 
	C508.906403,118.467667 508.957733,118.898094 508.934875,119.647278 
z"/>
<path fill="#3BB7FF" opacity="1.000000" stroke="none" 
	d="
M484.725464,69.129562 
	C484.789093,69.397316 484.558624,69.591118 484.094299,69.849380 
	C484.081757,69.664658 484.272034,69.378578 484.725464,69.129562 
z"/>
<path fill="#3BB7FF" opacity="1.000000" stroke="none" 
	d="
M483.699097,69.981064 
	C483.834137,70.174530 483.679718,70.430115 483.325562,70.819794 
	C483.261169,70.674934 483.355804,70.371368 483.699097,69.981064 
z"/>
<path fill="#3BB7FF" opacity="1.000000" stroke="none" 
	d="
M487.313110,96.011536 
	C487.179352,95.819862 487.331665,95.566582 487.678467,95.178696 
	C487.743561,95.323082 487.652283,95.625023 487.313110,96.011536 
z"/>
<path fill="#3BB7FF" opacity="1.000000" stroke="none" 
	d="
M488.941650,89.754196 
	C488.651886,89.710640 488.652649,89.464127 488.984314,89.160431 
	C489.106384,89.093544 489.023376,89.541550 488.941650,89.754196 
z"/>
<path fill="#3BB7FF" opacity="1.000000" stroke="none" 
	d="
M484.939209,103.751434 
	C484.643463,103.712227 484.643158,103.461411 484.979553,103.143768 
	C485.102661,103.068222 485.021027,103.531120 484.939209,103.751434 
z"/>
<path fill="#3BB7FF" opacity="1.000000" stroke="none" 
	d="
M485.312134,103.012161 
	C485.178009,102.821068 485.329865,102.567413 485.677063,102.179314 
	C485.742004,102.323143 485.650543,102.624725 485.312134,103.012161 
z"/>
<path fill="#3BB7FF" opacity="1.000000" stroke="none" 
	d="
M475.686981,96.989319 
	C475.820190,97.181259 475.667450,97.434097 475.320953,97.821655 
	C475.255890,97.676941 475.347198,97.374878 475.686981,96.989319 
z"/>
<path fill="#3BB7FF" opacity="1.000000" stroke="none" 
	d="
M486.940369,96.750885 
	C486.643860,96.712547 486.642731,96.463242 486.977722,96.146454 
	C487.100311,96.070969 487.022125,96.531898 486.940369,96.750885 
z"/>
<path fill="#000000" opacity="1.000000" stroke="none" 
	d="
M535.956726,89.082367 
	C536.395142,87.652611 536.797241,86.607300 537.556152,84.634262 
	C539.700256,90.753784 541.558350,96.057091 543.567139,101.790413 
	C539.340759,101.790413 535.898804,101.790413 531.559631,101.790413 
	C533.090210,97.465050 534.505310,93.465935 535.956726,89.082367 
z"/>
<path fill="#3BB7FF" opacity="1.000000" stroke="none" 
	d="
M457.660675,87.156784 
	C457.434113,87.530182 457.141052,87.708443 456.848022,87.886696 
	C456.751587,87.621819 456.655121,87.356934 456.558655,87.092056 
	C456.903839,87.048592 457.249023,87.005119 457.660675,87.156784 
z"/>
<path fill="#000000" opacity="1.000000" stroke="none" 
	d="
M193.620087,103.068588 
	C189.548721,93.434837 194.578323,84.730553 202.917725,81.046692 
	C210.937546,77.503998 221.910385,85.704826 222.856293,92.823311 
	C224.031784,101.669594 221.356171,106.707527 212.432495,110.670258 
	C205.603897,113.702629 198.348572,110.611000 193.620087,103.068588 
z"/>
<path fill="#000000" opacity="1.000000" stroke="none" 
	d="
M805.826172,88.400826 
	C803.528931,93.670609 799.520630,94.584785 794.377563,93.777138 
	C794.377563,89.077789 794.377563,84.264305 794.377563,79.445389 
	C803.637146,78.223564 806.004456,79.978668 805.826172,88.400826 
z"/>
<path fill="#000000" opacity="1.000000" stroke="none" 
	d="
M159.533722,80.089714 
	C165.454361,89.570023 163.315994,92.816162 150.300781,94.413528 
	C150.300781,89.533607 150.300781,84.684860 150.300781,78.857628 
	C153.324280,79.183289 156.276840,79.501320 159.533722,80.089714 
z"/>
<path fill="#000000" opacity="1.000000" stroke="none" 
	d="
M639.637085,101.800522 
	C640.837952,96.469421 642.443298,91.295296 644.048584,86.121162 
	C644.440369,86.073174 644.832153,86.025185 645.223877,85.977188 
	C647.070374,91.226456 648.916870,96.475716 650.845093,101.957497 
	C646.999084,101.957497 643.520264,101.957497 639.637085,101.800522 
z"/>
<path fill="#000000" opacity="1.000000" stroke="none" 
	d="
M106.997833,87.863602 
	C106.997833,84.790642 106.997833,82.184799 106.997833,79.691780 
	C114.914108,78.203606 119.513695,80.473526 119.965935,85.745560 
	C120.423683,91.081871 117.068466,93.333954 106.997833,94.255280 
	C106.997833,92.261398 106.997833,90.296059 106.997833,87.863602 
z"/>
</svg>